<svg width="101" height="101" viewBox="0 0 101 101" fill="none" xmlns="http://www.w3.org/2000/svg">
<g clip-path="url(#clip0_5_565)">
<path d="M78.654 36.6341C78.229 36.3154 77.7121 36.1431 77.1808 36.1431H58.3726L76.9844 3.68305C77.6626 2.50862 77.2602 1.00708 76.0858 0.328942C75.7169 0.115972 75.2989 0.00261365 74.8729 0L48.7477 0C48.2822 0.00352433 47.8273 0.139276 47.4361 0.391431C47.0448 0.643586 46.7333 1.00176 46.5378 1.42419L21.5914 53.7235C21.0219 54.9541 21.5578 56.4135 22.7884 56.983C23.1061 57.1301 23.4513 57.2074 23.8012 57.2099H42.5601L29.0556 97.9691C28.941 98.5213 29.0201 99.0961 29.2794 99.597C29.5388 100.098 29.9626 100.494 30.4797 100.719C30.9935 100.989 31.5861 101.067 32.1524 100.941C32.7187 100.816 33.2222 100.493 33.5735 100.032L79.145 40.0716C79.9587 38.9867 79.7389 37.4476 78.654 36.6341ZM38.5825 85.4957L48.5021 55.3438C48.936 54.0591 48.2463 52.6657 46.9616 52.2318C46.7142 52.1483 46.4551 52.1047 46.1939 52.1027H27.877L50.2699 4.66504H70.6986L52.0378 37.3705C51.3596 38.5449 51.762 40.0465 52.9364 40.7246C53.3054 40.9376 53.7233 41.0509 54.1493 41.0536H72.2699L38.5825 85.4957Z" fill="#2F80ED"/>
</g>
<defs>
<clipPath id="clip0_5_565">
<rect width="101" height="101" fill="white"/>
</clipPath>
</defs>
</svg>
