<svg width="99" height="99" viewBox="0 0 99 99" fill="none" xmlns="http://www.w3.org/2000/svg">
<g clip-path="url(#clip0_5_251)">
<path d="M58.7812 18.5625H21.6562C19.9485 18.5625 18.5625 19.9485 18.5625 21.6562C18.5625 23.364 19.9485 24.75 21.6562 24.75H58.7812C60.489 24.75 61.875 23.364 61.875 21.6562C61.875 19.9485 60.489 18.5625 58.7812 18.5625ZM46.4062 30.9375H21.6562C19.9485 30.9375 18.5625 32.3235 18.5625 34.0312C18.5625 35.739 19.9485 37.125 21.6562 37.125H46.4062C48.114 37.125 49.5 35.739 49.5 34.0312C49.5 32.3235 48.114 30.9375 46.4062 30.9375Z" fill="#2F80ED"/>
<path d="M68.0625 0H12.375C5.55019 0 0 5.55019 0 12.375V74.25C0 75.4504 0.693 76.5456 1.782 77.0529C2.19313 77.2434 2.64063 77.3426 3.09375 77.3438C3.80531 77.3438 4.51069 77.0963 5.07375 76.626L22.7762 61.875H68.0625C74.8873 61.875 80.4375 56.3248 80.4375 49.5V12.375C80.4375 5.55019 74.8873 0 68.0625 0ZM74.25 49.5C74.25 52.9093 71.478 55.6875 68.0625 55.6875H21.6562C20.9323 55.6875 20.2331 55.9412 19.6763 56.4053L6.1875 67.6479V12.375C6.1875 8.96569 8.9595 6.1875 12.375 6.1875H68.0625C71.478 6.1875 74.25 8.96569 74.25 12.375V49.5Z" fill="#2F80ED"/>
<path d="M86.625 24.75C84.9173 24.75 83.5312 26.136 83.5312 27.8438C83.5312 29.5515 84.9173 30.9375 86.625 30.9375C90.0405 30.9375 92.8125 33.7157 92.8125 37.125V89.4651L82.368 81.1119C81.8187 80.6764 81.1385 80.4388 80.4375 80.4375H37.125C33.7095 80.4375 30.9375 77.6593 30.9375 74.25V71.1562C30.9375 69.4485 29.5515 68.0625 27.8438 68.0625C26.136 68.0625 24.75 69.4485 24.75 71.1562V74.25C24.75 81.0748 30.3002 86.625 37.125 86.625H79.3485L93.9696 98.3256C94.5209 98.7619 95.2032 98.9995 95.9062 99C96.3579 99 96.8158 98.901 97.2489 98.6968C97.7733 98.4429 98.2157 98.0466 98.5253 97.5531C98.835 97.0596 98.9995 96.4889 99 95.9062V37.125C99 30.3002 93.4498 24.75 86.625 24.75Z" fill="#2F80ED"/>
</g>
<defs>
<clipPath id="clip0_5_251">
<rect width="99" height="99" fill="white"/>
</clipPath>
</defs>
</svg>
