<svg width="122" height="122" viewBox="0 0 122 122" fill="none" xmlns="http://www.w3.org/2000/svg">
<path d="M106.75 38.125V26.6875C106.75 25.6764 106.348 24.7066 105.633 23.9917C104.918 23.2767 103.949 22.875 102.938 22.875H19.0625C18.0514 22.875 17.0816 23.2767 16.3667 23.9917C15.6517 24.7066 15.25 25.6764 15.25 26.6875V76.25C13.2277 76.25 11.2883 77.0533 9.85831 78.4833C8.42835 79.9133 7.625 81.8527 7.625 83.875V87.6875C7.625 90.7209 8.83002 93.6301 10.975 95.775C13.1199 97.92 16.0291 99.125 19.0625 99.125H106.75C108.772 99.125 110.712 98.3217 112.142 96.8917C113.572 95.4617 114.375 93.5223 114.375 91.5V45.75C114.375 43.7277 113.572 41.7883 112.142 40.3583C110.712 38.9283 108.772 38.125 106.75 38.125ZM22.875 30.5H99.125V38.125H80.0625C78.0402 38.125 76.1008 38.9283 74.6708 40.3583C73.2408 41.7883 72.4375 43.7277 72.4375 45.75V78.4994L70.8744 80.0625H51.1256L48.4569 77.3556C48.1006 77.0023 47.6782 76.7227 47.2136 76.533C46.7491 76.3433 46.2518 76.2471 45.75 76.25H22.875V30.5ZM19.0625 91.5C18.0514 91.5 17.0816 91.0983 16.3667 90.3833C15.6517 89.6684 15.25 88.6986 15.25 87.6875V83.875H44.1869L46.8556 86.5819C47.2119 86.9352 47.6343 87.2148 48.0989 87.4045C48.5634 87.5942 49.0607 87.6904 49.5625 87.6875H72.4375V91.5H19.0625ZM106.75 91.5H80.0625V45.75H106.75V91.5Z" fill="#2F80ED"/>
<path d="M95.3125 80.0625H91.5C90.4889 80.0625 89.5191 80.4642 88.8042 81.1792C88.0892 81.8941 87.6875 82.8639 87.6875 83.875C87.6875 84.8861 88.0892 85.8559 88.8042 86.5708C89.5191 87.2858 90.4889 87.6875 91.5 87.6875H95.3125C96.3236 87.6875 97.2934 87.2858 98.0083 86.5708C98.7233 85.8559 99.125 84.8861 99.125 83.875C99.125 82.8639 98.7233 81.8941 98.0083 81.1792C97.2934 80.4642 96.3236 80.0625 95.3125 80.0625Z" fill="#2F80ED"/>
</svg>
