<svg width="104" height="104" viewBox="0 0 104 104" fill="none" xmlns="http://www.w3.org/2000/svg">
<path d="M91 19.5H51.5385C50.0849 13.9092 45.0393 9.75 39 9.75C32.9607 9.75 27.9151 13.9092 26.4615 19.5H13C12.138 19.5 11.3114 19.8424 10.7019 20.4519C10.0924 21.0614 9.75 21.888 9.75 22.75C9.75 23.612 10.0924 24.4386 10.7019 25.0481C11.3114 25.6576 12.138 26 13 26H26.4615C27.9151 31.5908 32.9607 35.75 39 35.75C45.0393 35.75 50.0849 31.5908 51.5385 26H91C91.862 26 92.6886 25.6576 93.2981 25.0481C93.9076 24.4386 94.25 23.612 94.25 22.75C94.25 21.888 93.9076 21.0614 93.2981 20.4519C92.6886 19.8424 91.862 19.5 91 19.5ZM39 29.25C35.4153 29.25 32.5 26.3347 32.5 22.75C32.5 19.1652 35.4153 16.25 39 16.25C42.5848 16.25 45.5 19.1652 45.5 22.75C45.5 26.3347 42.5848 29.25 39 29.25ZM91 48.75H77.5385C76.0849 43.1592 71.0393 39 65 39C58.9607 39 53.9151 43.1592 52.4615 48.75H13C12.138 48.75 11.3114 49.0924 10.7019 49.7019C10.0924 50.3114 9.75 51.138 9.75 52C9.75 52.862 10.0924 53.6886 10.7019 54.2981C11.3114 54.9076 12.138 55.25 13 55.25H52.4615C53.9151 60.8408 58.9607 65 65 65C71.0393 65 76.0849 60.8408 77.5385 55.25H91C91.862 55.25 92.6886 54.9076 93.2981 54.2981C93.9076 53.6886 94.25 52.862 94.25 52C94.25 51.138 93.9076 50.3114 93.2981 49.7019C92.6886 49.0924 91.862 48.75 91 48.75ZM65 58.5C61.4152 58.5 58.5 55.5848 58.5 52C58.5 48.4152 61.4152 45.5 65 45.5C68.5848 45.5 71.5 48.4152 71.5 52C71.5 55.5848 68.5848 58.5 65 58.5ZM91 78H51.5385C50.0849 72.4092 45.0393 68.25 39 68.25C32.9607 68.25 27.9151 72.4092 26.4615 78H13C12.138 78 11.3114 78.3424 10.7019 78.9519C10.0924 79.5614 9.75 80.388 9.75 81.25C9.75 82.112 10.0924 82.9386 10.7019 83.5481C11.3114 84.1576 12.138 84.5 13 84.5H26.4615C27.9151 90.0908 32.9607 94.25 39 94.25C45.0393 94.25 50.0849 90.0908 51.5385 84.5H91C91.862 84.5 92.6886 84.1576 93.2981 83.5481C93.9076 82.9386 94.25 82.112 94.25 81.25C94.25 80.388 93.9076 79.5614 93.2981 78.9519C92.6886 78.3424 91.862 78 91 78ZM39 87.75C35.4153 87.75 32.5 84.8347 32.5 81.25C32.5 77.6653 35.4153 74.75 39 74.75C42.5848 74.75 45.5 77.6653 45.5 81.25C45.5 84.8347 42.5848 87.75 39 87.75Z" fill="#2F80ED"/>
</svg>
