<svg xmlns="http://www.w3.org/2000/svg" version="1.1" xmlns:xlink="http://www.w3.org/1999/xlink" xmlns:svgjs="http://svgjs.com/svgjs" width="512" height="512" x="0" y="0" viewBox="0 0 186 186" style="enable-background:new 0 0 512 512" xml:space="preserve" class=""><g><path d="M186 24.333C186 10.894 175.106 0 161.667 0H24.333C10.894 0 0 10.894 0 24.333v137.333C0 175.106 10.894 186 24.333 186h137.333c13.44 0 24.334-10.894 24.334-24.333V24.333zM92.5 43.142c13.111 0 23.74 10.629 23.74 23.74 0 13.112-10.629 23.74-23.74 23.74s-23.74-10.629-23.74-23.74c0-13.111 10.629-23.74 23.74-23.74zM130.949 153H55.717c-7.173 0-12.988-5.888-12.988-13.061 0-20.497 12.636-38.106 30.539-45.345a33.568 33.568 0 0 0 19.233 6.025 33.57 33.57 0 0 0 19.827-6.448c18.469 6.962 31.61 24.863 31.61 45.768 0 7.173-5.815 13.061-12.989 13.061z" fill="#bdbdbd" data-original="#000000" class="" opacity="1"></path></g></svg>