<svg xmlns="http://www.w3.org/2000/svg" version="1.1" xmlns:xlink="http://www.w3.org/1999/xlink" xmlns:svgjs="http://svgjs.com/svgjs" width="512" height="512" x="0" y="0" viewBox="0 0 32 32" style="enable-background:new 0 0 512 512" xml:space="preserve" class=""><g><path d="M5 18.85 1.13 25.5a1 1 0 0 0 0 1.05 1 1 0 0 0 1 .44l4.22-.51L8 30.39a1 1 0 0 0 .86.61h.06a1 1 0 0 0 .86-.5l3.37-5.82A13.07 13.07 0 0 1 5 18.85zM30.87 25.5 27 18.85a13.07 13.07 0 0 1-8.19 5.83l3.37 5.82a1 1 0 0 0 .86.5h.06a1 1 0 0 0 .86-.61l1.67-3.91 4.22.51a1 1 0 0 0 .95-.44 1 1 0 0 0 .07-1.05zM27 12a11 11 0 1 0-11 11 11 11 0 0 0 11-11zm-8 6h-6v-2h2V8.67l-1.41.76-.94-1.76 2.88-1.55a1 1 0 0 1 1 0A1 1 0 0 1 17 7v9h2z" fill="#828282" data-original="#000000" opacity="1" class=""></path></g></svg>