<svg xmlns="http://www.w3.org/2000/svg" version="1.1" xmlns:xlink="http://www.w3.org/1999/xlink" xmlns:svgjs="http://svgjs.com/svgjs" width="512" height="512" x="0" y="0" viewBox="0 0 512 512" style="enable-background:new 0 0 512 512" xml:space="preserve" class=""><g><path d="M50.008 329.191 1.586 426.02a15.012 15.012 0 0 0 .652 14.601 15.008 15.008 0 0 0 12.758 7.11h72.84L131.539 506c2.84 3.8 7.297 6 11.988 6 6.23 0 11.141-3.719 13.422-8.29l45.63-91.26c-61.692-5.9-116.083-37.18-152.571-83.259zM446.148 426.02l-48.421-96.829c-36.489 46.079-90.88 77.36-152.57 83.258l45.632 91.262c2.277 4.57 7.188 8.289 13.418 8.289 4.691 0 9.152-2.2 11.992-6l43.7-58.27h72.84c5.199 0 10.019-2.69 12.757-7.109 2.73-4.422 2.98-9.95.652-14.601zM415.602 191.734C415.602 86.012 329.59 0 223.867 0 118.145 0 32.133 86.012 32.133 191.734c0 105.72 86.012 191.735 191.734 191.735 105.723 0 191.735-86.012 191.735-191.735zm-143.536 65.332c8.286 0 15 6.715 15 15s-6.714 15-15 15h-96.398c-8.285 0-15-6.714-15-15v-7.316c0-20.562 10.215-39.652 27.332-51.066 8.656-5.766 53.344-35.555 53.344-35.555a35.278 35.278 0 0 0 15.726-29.406c-.62-17.79-15.23-32.024-33.172-32.024-17.941 0-32.55 14.235-33.171 32.024 0 8.285-6.715 15-15 15-8.282 0-15-6.715-15-15 .632-34.36 28.66-62.024 63.171-62.024 34.512 0 62.543 27.664 63.172 62.024 0 21.906-10.875 42.226-29.086 54.367 0 0-44.691 29.793-53.347 35.558a31.312 31.312 0 0 0-13.02 18.418zm0 0" fill="#828282" data-original="#000000" opacity="1" class=""></path></g></svg>