<svg width="222" height="45" viewBox="0 0 222 45" fill="none" xmlns="http://www.w3.org/2000/svg">
<path d="M95.432 20.648C94.744 20.648 94.128 20.784 93.584 21.056C93.056 21.328 92.608 21.72 92.24 22.232C91.872 22.728 91.592 23.336 91.4 24.056C91.224 24.776 91.136 25.584 91.136 26.48C91.136 27.696 91.28 28.736 91.568 29.6C91.872 30.448 92.344 31.096 92.984 31.544C93.624 31.992 94.44 32.216 95.432 32.216C96.136 32.216 96.832 32.136 97.52 31.976C98.224 31.816 98.984 31.592 99.8 31.304V34.352C99.048 34.656 98.304 34.88 97.568 35.024C96.832 35.168 96.008 35.24 95.096 35.24C93.336 35.24 91.88 34.88 90.728 34.16C89.592 33.424 88.752 32.4 88.208 31.088C87.664 29.76 87.392 28.216 87.392 26.456C87.392 25.16 87.568 23.976 87.92 22.904C88.272 21.816 88.784 20.88 89.456 20.096C90.144 19.312 90.984 18.704 91.976 18.272C92.984 17.84 94.136 17.624 95.432 17.624C96.28 17.624 97.128 17.736 97.976 17.96C98.84 18.168 99.664 18.456 100.448 18.824L99.272 21.776C98.632 21.472 97.984 21.208 97.328 20.984C96.688 20.76 96.056 20.648 95.432 20.648Z" fill="white"/>
<path d="M106.729 20.48C106.729 21.12 106.705 21.736 106.657 22.328C106.625 22.92 106.593 23.336 106.561 23.576H106.753C107.041 23.128 107.377 22.768 107.761 22.496C108.145 22.208 108.569 22 109.033 21.872C109.513 21.728 110.017 21.656 110.545 21.656C111.489 21.656 112.313 21.824 113.017 22.16C113.721 22.496 114.265 23.016 114.649 23.72C115.049 24.424 115.249 25.336 115.249 26.456V35H111.673V27.344C111.673 26.4 111.497 25.696 111.145 25.232C110.809 24.752 110.281 24.512 109.561 24.512C108.841 24.512 108.273 24.68 107.857 25.016C107.457 25.352 107.169 25.84 106.993 26.48C106.817 27.12 106.729 27.904 106.729 28.832V35H103.153V16.76H106.729V20.48Z" fill="white"/>
<path d="M124.303 21.632C126.063 21.632 127.407 22.016 128.335 22.784C129.279 23.536 129.751 24.696 129.751 26.264V35H127.255L126.559 33.224H126.463C126.095 33.688 125.711 34.072 125.311 34.376C124.927 34.68 124.479 34.896 123.967 35.024C123.471 35.168 122.855 35.24 122.119 35.24C121.351 35.24 120.655 35.096 120.031 34.808C119.423 34.504 118.943 34.048 118.591 33.44C118.239 32.816 118.063 32.032 118.063 31.088C118.063 29.696 118.551 28.672 119.527 28.016C120.503 27.344 121.967 26.976 123.919 26.912L126.199 26.84V26.264C126.199 25.576 126.015 25.072 125.647 24.752C125.295 24.432 124.799 24.272 124.159 24.272C123.519 24.272 122.895 24.368 122.287 24.56C121.679 24.736 121.071 24.96 120.463 25.232L119.287 22.808C119.991 22.44 120.767 22.152 121.615 21.944C122.479 21.736 123.375 21.632 124.303 21.632ZM124.807 28.976C123.655 29.008 122.855 29.216 122.407 29.6C121.959 29.984 121.735 30.488 121.735 31.112C121.735 31.656 121.895 32.048 122.215 32.288C122.535 32.512 122.951 32.624 123.463 32.624C124.231 32.624 124.879 32.4 125.407 31.952C125.935 31.488 126.199 30.84 126.199 30.008V28.928L124.807 28.976Z" fill="white"/>
<path d="M138.931 32.384C139.331 32.384 139.715 32.344 140.083 32.264C140.451 32.184 140.819 32.088 141.187 31.976V34.64C140.803 34.8 140.323 34.936 139.747 35.048C139.187 35.176 138.571 35.24 137.899 35.24C137.115 35.24 136.411 35.112 135.787 34.856C135.179 34.6 134.691 34.16 134.323 33.536C133.971 32.896 133.795 32.016 133.795 30.896V24.584H132.091V23.072L134.059 21.872L135.091 19.112H137.371V21.896H141.043V24.584H137.371V30.896C137.371 31.392 137.515 31.768 137.803 32.024C138.091 32.264 138.467 32.384 138.931 32.384Z" fill="white"/>
<path d="M149.337 32.384C149.737 32.384 150.121 32.344 150.489 32.264C150.857 32.184 151.225 32.088 151.593 31.976V34.64C151.209 34.8 150.729 34.936 150.153 35.048C149.593 35.176 148.977 35.24 148.305 35.24C147.521 35.24 146.817 35.112 146.193 34.856C145.585 34.6 145.097 34.16 144.729 33.536C144.377 32.896 144.201 32.016 144.201 30.896V24.584H142.497V23.072L144.465 21.872L145.497 19.112H147.777V21.896H151.449V24.584H147.777V30.896C147.777 31.392 147.921 31.768 148.209 32.024C148.497 32.264 148.873 32.384 149.337 32.384Z" fill="white"/>
<path d="M159.624 21.656C160.84 21.656 161.88 21.888 162.744 22.352C163.624 22.816 164.304 23.488 164.784 24.368C165.264 25.248 165.504 26.328 165.504 27.608V29.336H157.056C157.088 30.344 157.384 31.136 157.944 31.712C158.52 32.288 159.312 32.576 160.32 32.576C161.168 32.576 161.936 32.496 162.624 32.336C163.312 32.16 164.024 31.896 164.76 31.544V34.304C164.12 34.624 163.44 34.856 162.72 35C162.016 35.16 161.16 35.24 160.152 35.24C158.84 35.24 157.68 35 156.672 34.52C155.664 34.024 154.872 33.28 154.296 32.288C153.72 31.296 153.432 30.048 153.432 28.544C153.432 27.008 153.688 25.736 154.2 24.728C154.728 23.704 155.456 22.936 156.384 22.424C157.312 21.912 158.392 21.656 159.624 21.656ZM159.648 24.2C158.96 24.2 158.384 24.424 157.92 24.872C157.472 25.32 157.208 26.016 157.128 26.96H162.144C162.144 26.432 162.048 25.96 161.856 25.544C161.68 25.128 161.408 24.8 161.04 24.56C160.672 24.32 160.208 24.2 159.648 24.2Z" fill="white"/>
<path d="M175.723 21.656C175.899 21.656 176.107 21.664 176.347 21.68C176.587 21.696 176.779 21.72 176.923 21.752L176.659 25.112C176.547 25.08 176.379 25.056 176.155 25.04C175.947 25.008 175.763 24.992 175.603 24.992C175.139 24.992 174.691 25.056 174.259 25.184C173.827 25.296 173.435 25.48 173.083 25.736C172.747 25.992 172.475 26.336 172.267 26.768C172.075 27.184 171.979 27.704 171.979 28.328V35H168.403V21.896H171.115L171.643 24.104H171.811C172.067 23.656 172.387 23.248 172.771 22.88C173.155 22.512 173.595 22.216 174.091 21.992C174.603 21.768 175.147 21.656 175.723 21.656Z" fill="white"/>
<path d="M184.918 17.864C186.438 17.864 187.71 18.008 188.734 18.296C189.774 18.568 190.55 19.024 191.062 19.664C191.59 20.288 191.854 21.136 191.854 22.208C191.854 22.848 191.75 23.432 191.542 23.96C191.334 24.488 191.03 24.92 190.63 25.256C190.246 25.592 189.774 25.808 189.214 25.904V26.024C189.79 26.136 190.31 26.336 190.774 26.624C191.238 26.912 191.606 27.328 191.878 27.872C192.15 28.416 192.286 29.136 192.286 30.032C192.286 31.072 192.03 31.968 191.518 32.72C191.022 33.456 190.302 34.024 189.358 34.424C188.414 34.808 187.294 35 185.998 35H179.59V17.864H184.918ZM185.326 24.656C186.382 24.656 187.11 24.488 187.51 24.152C187.926 23.816 188.134 23.328 188.134 22.688C188.134 22.032 187.894 21.56 187.414 21.272C186.934 20.984 186.174 20.84 185.134 20.84H183.214V24.656H185.326ZM183.214 27.536V32H185.59C186.678 32 187.438 31.792 187.87 31.376C188.302 30.944 188.518 30.376 188.518 29.672C188.518 29.24 188.422 28.864 188.23 28.544C188.054 28.224 187.742 27.976 187.294 27.8C186.846 27.624 186.238 27.536 185.47 27.536H183.214Z" fill="white"/>
<path d="M207.331 28.424C207.331 29.512 207.179 30.48 206.875 31.328C206.587 32.176 206.163 32.896 205.603 33.488C205.059 34.064 204.395 34.504 203.611 34.808C202.827 35.096 201.939 35.24 200.947 35.24C200.035 35.24 199.187 35.096 198.403 34.808C197.635 34.504 196.971 34.064 196.411 33.488C195.851 32.896 195.411 32.176 195.091 31.328C194.787 30.48 194.635 29.512 194.635 28.424C194.635 26.968 194.891 25.744 195.403 24.752C195.915 23.744 196.651 22.976 197.611 22.448C198.571 21.92 199.707 21.656 201.019 21.656C202.251 21.656 203.339 21.92 204.283 22.448C205.227 22.976 205.971 23.744 206.515 24.752C207.059 25.744 207.331 26.968 207.331 28.424ZM198.283 28.424C198.283 29.288 198.371 30.016 198.547 30.608C198.739 31.184 199.035 31.624 199.435 31.928C199.835 32.216 200.355 32.36 200.995 32.36C201.635 32.36 202.147 32.216 202.531 31.928C202.931 31.624 203.219 31.184 203.395 30.608C203.587 30.016 203.683 29.288 203.683 28.424C203.683 27.56 203.587 26.84 203.395 26.264C203.219 25.688 202.931 25.256 202.531 24.968C202.131 24.68 201.611 24.536 200.971 24.536C200.027 24.536 199.339 24.864 198.907 25.52C198.491 26.16 198.283 27.128 198.283 28.424Z" fill="white"/>
<path d="M212.505 28.304L208.281 21.896H212.337L214.881 26.072L217.449 21.896H221.505L217.233 28.304L221.697 35H217.641L214.881 30.512L212.121 35H208.065L212.505 28.304Z" fill="white"/>
<path d="M64.9313 40.8969C65.0531 39.1906 64.5656 37.2406 64.2 35.9C62.7375 30.5375 61.1531 25.0531 59.6906 19.6906C58.8375 16.6438 57.9844 13.475 57.1313 10.4281C56.5219 8.35627 55.3031 6.77189 52.9875 8.11252C51.1594 9.20939 49.3313 10.3063 47.625 11.4031C43.6031 8.23439 39.4594 5.06564 35.4375 1.89689C33.7313 0.556268 32.2688 0.434393 30.9281 2.14064C22.1531 13.475 13.2563 24.5656 4.60314 35.9C3.38439 37.4844 1.55626 39.1906 0.946888 41.1406C0.337513 43.2125 2.04376 44.0656 3.75001 44.0656H61.8844C63.9563 43.9438 64.8094 42.6031 64.9313 40.8969ZM31.05 9.57502C31.9031 8.60002 32.6344 7.50314 33.4875 6.52814C36.6563 9.08752 39.9469 11.525 43.1156 14.0844C40.6781 15.5469 38.2406 17.0094 35.925 18.4719C28.3688 23.1031 20.8125 27.7344 13.1344 32.4875C19.1063 24.8094 25.0781 17.1313 31.05 9.57502Z" fill="white"/>
</svg>
